<?xml version="1.0" encoding="UTF-8" standalone="no"?>
<svg
   xmlns:svg="http://www.w3.org/2000/svg"
   xmlns="http://www.w3.org/2000/svg"
   xmlns:xlink="http://www.w3.org/1999/xlink"
   version="1.0"
   width="1022"
   height="768"
   viewBox="0 0 312.78125 235"
   id="MIT logo">
  <g
     id="g3072">
    <path
       d="m 0,0 0,93.40625 19.71875,0 L 19.71875,0 0,0 z"
       id="path2882"
       style="fill:#a80c2f" />
    <path
       d="m 32.1875,0 0,63.8125 19.71875,0 0,-63.8125 -19.71875,0 z"
       id="path2888"
       style="fill:#a80c2f" />
    <use
       transform="translate(64.34375,0)"
       id="use2886"
       xlink:href="#path2882" />
    <path
       d="m 96.40625,0 0,18.6875 19.84375,0 L 116.25,0 96.40625,0 z"
       id="path2982"
       style="fill:#a80c2f" />
    <path
       d="m 96.5625,29.5 0,63.8125 19.71875,0 0,-63.8125 -19.71875,0 z"
       id="path2486"
       style="fill:#918f90" />
    <path
       d="m 128.5625,0 0,18.6875 52.03125,0 0,-18.6875 -52.03125,0 z"
       id="path2416"
       style="fill:#a80c2f" />
    <use
       transform="translate(96.5,29.59375)"
       id="use2984"
       xlink:href="#path2888" />
  </g>
  <g
     id="g3036">
    <path
       d="m 128.625,148.56245 0,18.53125 4.5,0 -0.25,-11.68745 c -0.0788,-1.76125 -0.0775,-2.06127 -0.15625,-3.53125 l 0.8125,3.3125 3.375,11.90625 3.96875,0 3.5,-12.4375 c 0.21,-0.78875 0.23249,-0.92002 0.46875,-1.96875 L 145,152.03125 l -0.0312,1.84375 -0.3125,13.21875 4.4375,0 0,-18.53125 -6.75,0 -2.96875,11.0625 c -0.21,0.86625 -0.20624,0.99502 -0.46875,2.28125 l -0.65625,-2.9375 -2.84375,-10.40625 -6.78125,0 -5e-5,-5e-5 z"
       id="M"
       style="fill:#a80c2f" />
    <path
       d="m 158.56165,153.03029 c -1.6,0 -3.20639,0.18967 -4.46639,1.18593 -1.23375,0.9725 -1.35584,2.11549 -1.4346,3.06048 l 4.02645,0 c 0.10625,-0.49875 0.33696,-1.61632 2.12321,-1.61631 1.44374,0 1.51475,1.05328 1.56849,1.68326 l 0,0.74599 c -1.70625,0.315 -4.31071,0.77914 -5.41322,1.25289 -1.13,0.47125 -2.90746,1.7354 -2.90746,3.94037 0,1.91625 1.35339,4.18904 4.50464,4.18903 2.02001,0 3.16653,-0.8634 4.18904,-1.62588 l 0,1.24332 3.96906,0 c -0.315,-0.47249 -0.41126,-0.68315 -0.41125,-2.1519 l 0,-7.96681 c 0,-3.5425 -4.06673,-3.9404 -5.74797,-3.94037 z m 1.81716,7.49818 c -0.0263,1.4175 -0.10546,2.66041 -1.44416,3.50042 -0.42,0.26375 -0.86765,0.46865 -1.36765,0.46864 -0.94501,0 -1.53981,-0.74967 -1.53981,-1.40591 0,-1.05 1.04026,-1.41953 1.72152,-1.68327 l 2.6301,-0.87988 z"
       id="a"
       style="fill:#a80c2f" />
    <path
       d="m 172.90625,152.93745 c -3.8325,0 -5.78126,2.33502 -5.78125,4.59375 0,1.0225 0.42875,1.96002 1.03125,2.5625 0.60375,0.60625 1.44125,0.95002 2.28125,1.1875 0.605,0.18375 1.24125,0.33248 1.84375,0.4375 0.78875,0.13125 1.74001,0.18624 2.34375,0.5 0.2375,0.1325 0.53126,0.33873 0.53125,0.8125 0,1.02375 -1.49626,1.34373 -2.46875,1.34375 -1.52125,0 -2.86749,-0.83 -3.96875,-1.90625 l -2.5625,2.3125 c 0.86625,0.81375 2.85001,2.65625 6.65625,2.65625 3.23,0 6.46874,-1.585 6.46875,-4.8125 0,-3.2575 -3.18124,-4.00126 -5.9375,-4.5 -1.31125,-0.23625 -2.1875,-0.36749 -2.1875,-1.15625 0,-0.39375 0.3625,-1.03125 1.9375,-1.03125 0.945,0 2.15,0.37626 3.4375,1.375 l 2.5,-2.3125 c -0.94625,-0.6575 -2.895,-2.0625 -6.125,-2.0625 z"
       id="s"
       style="fill:#a80c2f" />
    <use
       transform="translate(13.6875,0)"
       id="s2"
       xlink:href="#s" />
    <use
       transform="translate(42.660248,0)"
       id="a2"
       xlink:href="#a" />
    <path
       d="m 216.625,153.03125 c -4.5675,0 -6.87499,3.35372 -6.875,7.34375 0,5.59125 4.15624,7.15627 6.78125,7.15625 1.54875,0 2.88874,-0.48377 3.9375,-1.21875 1.1025,-0.7875 1.6575,-1.64999 2.15625,-2.4375 l -3.03125,-1.59375 c -0.13125,0.39375 -0.28376,0.70127 -0.625,1.09375 -0.84125,0.945 -1.82124,0.96876 -2.03125,0.96875 -2.1525,0 -3.06251,-2.28249 -3.0625,-4.09375 0,-1.6525 0.75876,-4.15625 2.9375,-4.15625 0.63,0 1.10749,0.205 1.5,0.46875 0.6575,0.47125 0.92124,0.93877 1.15625,1.4375 l 3,-1.6875 c -1.73375,-2.86125 -4.32124,-3.28127 -5.84375,-3.28125 z"
       id="c"
       style="fill:#a80c2f" />
    <path
       d="m 223.25,148.53125 0,18.5625 4.0625,0 0,-6.8125 c 0,-1.18125 0.005,-2.32375 0.53125,-3.03125 0.33875,-0.445 0.94751,-0.78127 1.65625,-0.78125 0.42,0 1.48125,0.10999 1.875,1.34375 0.1575,0.4725 0.1875,1.02251 0.1875,2.125 l 0,7.15625 4,0 0,-9 c 0,-1.78625 -0.19875,-3.06999 -1.40625,-4.09375 -0.81375,-0.6825 -1.90749,-0.96877 -2.90625,-0.96875 -2.1775,0 -3.35999,1.23623 -3.9375,1.8125 l 0,-6.3125 -4.0625,0 z"
       id="h"
       style="fill:#a80c2f" />
    <path
       d="m 239,153.375 0,8.625 c 0,2.23 0.13499,3.03627 0.84375,4.03125 0.945,1.31375 2.6075,1.46873 3.5,1.46875 0.89375,0 1.78125,-0.23626 2.59375,-0.65625 0.735,-0.36875 0.98,-0.61625 1.375,-1.0625 l 0,1.3125 4.03125,0 0,-13.71875 -4.03125,0 0,8.53125 c -0.0263,0.73375 -0.07,1.44376 -0.9375,1.96875 -0.6025,0.3425 -1.1375,0.34373 -1.375,0.34375 -0.8125,0 -1.35749,-0.37249 -1.59375,-0.6875 -0.31375,-0.42 -0.31249,-1.02002 -0.3125,-1.625 l 0,-8.53125 -4.09375,0 z"
       id="u"
       style="fill:#a80c2f" />
    <use
       transform="translate(86.96875,2.5e-5)"
       id="s3"
       xlink:href="#s" />
    <path
       d="m 274.75476,152.93464 c -5.4075,0 -7.0391,4.25763 -7.03911,7.56513 0,4.48875 2.83648,7.09649 6.90521,7.09649 2.205,0 4.00949,-0.83776 5.19326,-1.94149 0.7075,-0.65625 1.1808,-1.35457 1.65457,-2.06582 l -3.06048,-1.53025 c -0.49875,0.97125 -1.26672,2.41013 -3.47174,2.41013 -2.17749,0 -3.15494,-1.69852 -3.12743,-3.40478 l 9.81268,0 c -0.0512,-1.5475 -0.14571,-4.24422 -1.93193,-6.15922 -1.75875,-1.89125 -4.12005,-1.97019 -4.93503,-1.97019 z m -0.0383,2.90746 c 0.7075,0 1.47019,0.25556 1.97019,0.75556 0.57625,0.60375 0.67682,1.35318 0.75555,1.93193 l -5.59494,0 c 0.1325,-0.57875 0.26043,-1.20382 0.81294,-1.8076 0.3925,-0.42125 1.08376,-0.87991 2.05626,-0.87989 z"
       id="e"
       style="fill:#a80c2f" />
    <path
       d="m 284.46875,149.43735 0,4.25 -2,0 0,2.46875 2,0 0,6.59375 c 0,1.31 0.0125,2.28002 0.5625,3.09375 0.86625,1.26125 2.38999,1.34377 3.78125,1.34375 0.735,0 1.25749,-0.055 2.125,-0.1875 l 0,-3.15625 -1.4375,0.0312 c -1.07375,0 -1.05624,-0.69125 -1.03125,-1.53125 l 0,-6.1875 2.65625,0 0,-2.4375 -2.65625,0 0,-4.28125 -4,0 0,5e-5 z"
       id="t"
       style="fill:#a80c2f" />
    <use
       transform="translate(8.25,9.9999946e-5)"
       id="t2"
       xlink:href="#t" />
    <use
       transform="translate(133.5,0)"
       id="s4"
       xlink:href="#s" />
    <path
       d="m 128.59375,180.06245 0,18.53125 4.625,0 0,-18.53125 -4.625,0 z"
       id="I"
       style="fill:#a80c2f" />
    <use
       transform="matrix(-1,0,0,-1,388.15625,352.01547)"
       id="n"
       xlink:href="#u" />
    <use
       transform="translate(-15.28125,31.500025)"
       id="s5"
       xlink:href="#s" />
    <use
       transform="translate(-117.59375,31.5001)"
       id="t3"
       xlink:href="#t" />
    <path
       d="m 574.15625,588.3125 0,10.21875 13.0625,0 0,-10.21875 -13.0625,0 z m 0,15.84375 0,44.8125 13.0625,0 0,-44.8125 -13.0625,0 z"
       transform="matrix(0.30604819,0,0,0.30604819,0,-0.02250489)"
       id="i"
       style="fill:#a80c2f" />
    <use
       transform="translate(-100.625,31.5001)"
       id="t4"
       xlink:href="#t" />
    <use
       transform="translate(-46.484375,31.49985)"
       id="u2"
       xlink:href="#u" />
    <use
       transform="translate(-75.484375,31.5001)"
       id="t5"
       xlink:href="#t" />
    <use
       transform="translate(-50.885294,31.499054)"
       id="e2"
       xlink:href="#e" />
    <path
       d="m 805.96875,602.78125 c -0.53155,0.003 -1.05952,0.0149 -1.5625,0.0312 -15.08923,0.4696 -22.65622,10.82188 -22.65625,23.6875 0,16.55377 11.48547,23.81253 24.09375,23.8125 17.49724,0 24,-12.49075 24,-23.8125 0,-8.15231 -4.01204,-22.65825 -22.28125,-23.6875 -0.53619,-0.0296 -1.0622,-0.0346 -1.59375,-0.0312 z m -0.1875,10.40625 c 1.90243,-0.0507 4.59842,0.34298 7,2.59375 2.48735,2.40158 3.6875,6.27529 3.6875,11.25 0,7.02912 -3.51007,12.75 -10.625,12.75 -7.37629,0 -10.84375,-6.26011 -10.84375,-13.375 0,-3.08775 0.62039,-6.20398 2.25,-8.78125 1.80527,-2.83044 4.01139,-4.14897 7.78125,-4.40625 0.23638,-0.0214 0.47822,-0.024 0.75,-0.0312 z"
       transform="matrix(0.30604819,0,0,0.30604819,0,-0.02250489)"
       id="o"
       style="fill:#a80c2f" />
    <path
       d="m 261.34375,179.78125 c -1.89,0 -3.03251,0.725 -3.53125,1.40625 -0.525,0.73375 -0.5625,1.66126 -0.5625,2.34375 l 0,1.6875 -2.1875,0 0,2.4375 2.15625,0 0,10.9375 4.03125,0 0,-10.9375 2.65625,0 0,-2.4375 -2.6875,0 c -0.0275,-1.8375 0.0412,-2.15624 1.5625,-2.15625 l 0.96875,0 0,-3.03125 c -0.7875,-0.105 -1.5925,-0.24998 -2.40625,-0.25 z"
       id="f"
       style="fill:#a80c2f" />
    <path
       d="m 123.875,211.53125 0,3.6875 4.84375,0 0,14.875 4.625,0 0,-14.875 4.8125,0 0,-3.6875 -14.28125,0 z"
       id="T"
       style="fill:#a80c2f" />
    <use
       transform="translate(-130.57494,63.000122)"
       id="e5"
       xlink:href="#e" />
    <use
       transform="translate(-57.28125,62.9999)"
       id="c2"
       xlink:href="#c" />
    <use
       transform="translate(-57.25,63)"
       id="h2"
       xlink:href="#h" />
    <use
       transform="matrix(-1,0,0,-1,433.17187,383.51548)"
       id="n2"
       xlink:href="#u" />
    <use
       transform="translate(-42.502442,31.499054)"
       id="o2"
       xlink:href="#o" />
    <path
       d="m 214.09375,211.56245 0,18.53125 4.0625,0 0,-18.53125 -4.0625,0 z"
       id="l"
       style="fill:#a80c2f" />
    <use
       transform="translate(-18.425175,31.498005)"
       id="o3"
       xlink:href="#o" />
    <path
       d="m 794.09375,706.34375 c -14.83835,0 -18.99997,12.95873 -19,21.96875 0,7.71937 2.27321,14.60913 8.28125,18.46875 2.91621,1.97273 6.53061,2.96875 10.21875,2.96875 6.08564,0 9.27063,-2.06175 11.84375,-3.78125 l 0,4.8125 c 0,3.69223 0.009,8.37497 -7.96875,8.375 -2.0585,0 -3.33384,-0.4149 -4.1875,-0.84375 -3.52069,-1.63373 -3.70346,-4.42944 -3.875,-6.40625 l -13.6875,0 c 0,2.40158 -0.0519,6.88961 3.46875,10.40625 2.3975,2.49144 8.232,5.625 17.15625,5.625 4.02714,0 10.76668,-0.7281 15.3125,-3.46875 6.51858,-3.778 6.67224,-9.51725 6.84375,-14.40625 l 0,-43 -12.34375,0 0,4.1875 c -1.97273,-1.89104 -5.19675,-4.90635 -12.0625,-4.90625 z m 2.4375,9.8125 c 3.77392,-0.16729 6.12697,1.65157 7.15625,3.28125 1.4581,2.14835 1.625,6.63698 1.625,8.78125 0,6.34704 -1.46609,11.53122 -8.15625,11.53125 -8.14823,0 -8.46878,-7.75325 -8.46875,-11.53125 0,-6.34704 1.5866,-11.79695 7.84375,-12.0625 z"
       transform="matrix(0.30604819,0,0,0.30604819,0,-0.02250489)"
       id="g"
       style="fill:#a80c2f" />
    <path
       d="m 252.25,216.3748 4.09375,13.25 c 0.08,0.2875 0.1875,0.62622 0.1875,0.96875 0,0.97 -1.03125,0.97248 -1.6875,1 l -1.40625,0 0,3.1875 2.90625,0 c 1.04875,-0.0263 1.96124,-0.0688 2.90625,-1.09375 0.68125,-0.76125 0.96374,-1.60748 1.28125,-2.5 l 4.84375,-14.8125 -4.3125,0 -2.25,9.84375 -2.25,-9.84375 -4.3125,0 z"
       id="y"
       style="fill:#a80c2f" />
  </g>
</svg>